<svg width="51" height="46" viewBox="0 0 51 46" fill="none" xmlns="http://www.w3.org/2000/svg">
<path d="M50.0329 1.095C49.755 0.852205 49.417 0.690733 49.0552 0.627976C48.6935 0.565219 48.3216 0.603556 47.9797 0.738857L2.55559 18.7296C1.91182 18.9829 1.3668 19.441 1.00258 20.035C0.638351 20.629 0.474635 21.3266 0.536075 22.0229C0.597516 22.7191 0.880788 23.3764 1.34324 23.8956C1.8057 24.4148 2.42231 24.768 3.10024 24.9019L14.8698 27.2406V40.5221C14.8675 41.2455 15.0799 41.953 15.4796 42.5528C15.8792 43.1526 16.4477 43.6171 17.1112 43.8861C17.7738 44.1599 18.5024 44.2257 19.2023 44.0748C19.9023 43.9239 20.5411 43.5633 21.0359 43.04L26.7111 37.0832L35.7148 45.0589C36.3644 45.642 37.2022 45.9647 38.0705 45.9663C38.451 45.966 38.8292 45.9055 39.1912 45.7871C39.7828 45.5971 40.3149 45.2535 40.7346 44.7907C41.1542 44.3278 41.4466 43.7618 41.5828 43.1489L50.6806 3.09346C50.762 2.73221 50.7447 2.35537 50.6306 2.00331C50.5165 1.65126 50.3099 1.33726 50.0329 1.095ZM38.075 42.3368L19.5431 25.8909L46.2158 6.5437L38.075 42.3368Z" fill="#0CFC03"/>
</svg>
