<svg width="49" height="45" viewBox="0 0 49 45" fill="none" xmlns="http://www.w3.org/2000/svg">
<path d="M48.2128 9.04975L41.511 15.8323C40.1572 31.7156 26.9217 44.0603 11.0818 44.0603C7.82725 44.0603 5.1443 43.5385 3.10687 42.5087C1.46392 41.6762 0.791503 40.7847 0.623398 40.5306C0.473503 40.3031 0.376346 40.0443 0.339187 39.7734C0.302029 39.5026 0.325829 39.2268 0.408809 38.9665C0.491789 38.7063 0.631802 38.4684 0.81839 38.2707C1.00498 38.0729 1.23331 37.9203 1.48634 37.8244C1.54461 37.8018 6.91948 35.7126 10.3331 31.736C8.44001 30.1608 6.78742 28.311 5.42895 26.2465C2.64962 22.0704 -0.461439 14.816 0.497879 3.97533C0.528287 3.63087 0.655319 3.30237 0.864017 3.02852C1.07272 2.75467 1.35439 2.54687 1.67586 2.4296C1.99734 2.31233 2.34523 2.29048 2.67857 2.3666C3.01191 2.44272 3.31682 2.61366 3.55739 2.85928C3.63584 2.93867 11.0168 10.3677 20.0406 12.7767V11.3953C20.0372 9.94666 20.3202 8.512 20.873 7.17576C21.4257 5.83952 22.2371 4.62872 23.2593 3.61466C24.252 2.6114 25.4332 1.81954 26.7332 1.28579C28.0332 0.75204 29.4257 0.487217 30.8285 0.506947C32.7103 0.525732 34.5552 1.03697 36.184 1.99095C37.8128 2.94493 39.1699 4.3092 40.1236 5.95111H46.9441C47.299 5.95083 47.6459 6.05711 47.9411 6.25649C48.2362 6.45588 48.4662 6.7394 48.6021 7.07118C48.7379 7.40295 48.7734 7.76805 48.7041 8.12026C48.6348 8.47247 48.4638 8.79595 48.2128 9.04975Z" fill="#0CFC03"/>
</svg>
